<?xml version="1.0" encoding="utf-8"?>
<!-- Generator: Adobe Illustrator 21.0.0, SVG Export Plug-In . SVG Version: 6.00 Build 0)  -->
<svg version="1.1" id="图层_1" xmlns="http://www.w3.org/2000/svg" xmlns:xlink="http://www.w3.org/1999/xlink" x="0px" y="0px"
	 viewBox="0 0 1502.5 1920" style="enable-background:new 0 0 1502.5 1920;" xml:space="preserve">
<style type="text/css">
	.st0{fill:#00C4FF;}
</style>
<g>
	<path class="st0" d="M818.9,729.3c-32.5,22.2-64,43.4-95.3,65.1c-21.9,15.2-43.6,30.6-64.8,46.8c-5.8,4.4-11.2,11.3-13.3,18.1
		c-54.7,178.9-108.9,358-163.3,537c-14.4,47.3-28.7,94.7-44,145.3c7.9-1.8,13.1-2.8,18.2-4.3c96.3-28.5,186.3-71.6,272.7-122.1
		c15.4-9,23.2-5.8,36.2,4.6c38,30.2,77.9,58.1,117.4,86.2c11.9,8.4,25.1,15,40.1,23.8c-5.6,4.7-9.8,9-14.7,12.1
		c-155,95.4-319.7,164.4-502.5,183c-18.9,1.9-27.1,8.2-32.2,26.8c-15.4,55.7-33.5,110.8-50.8,167c-106.9,0-214,0-323.2,0
		c11.5-37,22.7-73.2,33.9-109.4c15.4-49.8,30.6-99.7,46.4-149.3c3.2-10.2,2.3-17.9-5-25.7c-74.3-80.4-89.8-174.2-59.9-276.8
		c23.7-81.3,70.1-150.3,127.1-211.5c39.4-42.3,84.1-79.6,125-120.5c10-10,16.9-24.8,21.2-38.6c75.1-241.4,149.7-483,224.3-724.6
		c25.4-82.2,51.1-164.3,76-246.6c3.4-11.3,8.3-15.3,20.5-15.2c98.4,0.6,196.8,0.3,295.2,0.3c4.6,0,9.2,0,14.7,0
		c17.4,59.5,34.4,118,51.8,176.3c29.7,99.4,59.7,198.7,89.6,298c4.9,16.2,8.7,18.1,25.4,10c14.5-7.1,28.6-15.1,42.6-23.2
		c25.2-14.6,50.2-29.6,79.2-46.8c-10.8-8.6-18.5-17.3-28.1-21.8c-37.2-17.6-74.9-34-112.6-50.7c-13.3-5.9-26.8-11.1-42.2-17.4
		c17.2-16.8,33.1-25.9,57.6-21.1C1163.5,320,1245.2,334,1327,348c5.8,1,12.8-2.8,18.7-5.5c27-12.4,53.1-27.3,81-37
		c19.2-6.7,40.8-7.7,61.4-9c13.8-0.9,18.3,7.8,9.8,19.3s-18.8,22.9-30.7,30.5c-36.5,23.3-74.3,44.4-111.1,67.2
		c-7.1,4.4-14.3,11.3-17.6,18.7c-20.2,45.7-39.9,91.7-58.4,138.1c-7.9,20-25.7,19.4-42.2,26.9c1.8-43.2,15.3-83.2,9.9-127.4
		c-9.7,4.1-17.5,6.6-24.5,10.5c-42.5,23.3-84.8,47.2-127.5,70.3c-8.9,4.8-9.3,9.9-6.6,18.9c32.3,106.7,64.3,213.5,96.2,320.3
		c90,301.2,180,602.4,269.9,903.6c12.4,41.4,24.3,82.9,36.9,125.7c-6.1,0.3-11.1,0.7-16,0.7c-96.3,0-192.6-0.3-288.9,0.4
		c-12.9,0.1-18.2-3.8-21.7-15.9c-36.3-124.6-73-249.1-109.7-373.7c-74.6-253.1-149.1-506.1-223.8-759.2
		C828.5,757.9,823.9,744.6,818.9,729.3z M694,711.5c1,0.7,2,1.4,3,2.2c30.6-18.7,61.5-37.1,91.6-56.6c3.6-2.3,5.3-11.7,3.9-16.8
		c-10.1-37.7-21.1-75.2-32-112.8c-1.3-4.6-3.7-9-6.9-16.9C732.9,580.2,713.5,645.8,694,711.5z"/>
</g>
</svg>
