<svg id="图层_1" data-name="图层 1" xmlns="http://www.w3.org/2000/svg" viewBox="0 0 1919.81 1920.13"><defs><style>.cls-1{fill:#fff;}</style></defs><title>logo_cpc</title><path class="cls-1" d="M989,.19C1484.32,186,1770.07,752.56,1512.58,1233.52L872.64,626.85,1134.44,376.7,989,238.11c-82.72,81.07-202.15,87.07-290.88,51.32L174.53,813l261.79,235,192-188.49,651.57,653.21c-307.42,168.77-761.76,123-1076.26-203.62L58.42,1453c45.62,63.24,83.86,107.09,131.32,155.16-4.07,4.95-17.17,15.73-17.42,16.06-8-1.36-17.44-4.46-25.83-4.46-81,0-146.49,70.57-146.49,151.58s66.1,147.07,147.14,147.07,150.36-66.71,150.36-147.72c0-9.44-2.1-18.07-3.81-27l23.47-23c361.59,243.88,769,278.27,1195.43,23.16l174.53,174.53,232.7-232.7-174.53-174.53C2235.07,755.92,1600.14-18.17,989,.19Z" transform="translate(0 0.13)"/></svg>