<?xml version="1.0" encoding="utf-8"?>
<!-- Generator: Adobe Illustrator 21.0.0, SVG Export Plug-In . SVG Version: 6.00 Build 0)  -->
<svg version="1.1" id="图层_1" xmlns="http://www.w3.org/2000/svg" xmlns:xlink="http://www.w3.org/1999/xlink" x="0px" y="0px"
	 viewBox="0 0 1000 1000" style="enable-background:new 0 0 1000 1000;" xml:space="preserve">
<style type="text/css">
	.st0{fill:#FFFFFF;}
</style>
<g>
	<path d="M618.3,498.9c0,29.2,0.1,58.5,0,87.7c-0.1,21.4-10.8,32.1-32.5,32.1c-57.6,0.1-115.1,0.1-172.7,0
		c-20.6-0.1-31.6-11-31.7-31.7c-0.2-58-0.2-116,0-174c0.1-19.9,11-31.1,30.7-31.1c58.9-0.2,117.8-0.2,176.7,0
		c18.7,0.1,29.2,10.7,29.4,29.3C618.5,440.4,618.3,469.6,618.3,498.9z M524.8,443.8c-2-2.1-6.3-8.8-8.5-8.2
		c-4.9,1.4-11.5,5.7-12.8,10.1c-9.7,35-18.7,70.3-27,105.7c-0.9,3.9,4.1,9.2,6.4,13.9c4.3-2.9,10.4-4.9,12.5-8.9
		c3.3-6.1,3.9-13.7,5.7-20.6C508.8,506.2,516.4,476.7,524.8,443.8z M561.5,499.8c-12.9,12.3-23.5,21.3-32.7,31.7
		c-2.8,3.2-1.7,9.9-2.4,15c5.5-0.4,12.9,1.3,16.2-1.6c12.8-11.1,24.4-23.8,36.5-35.8c5.9-5.8,6.2-11.6,0.3-17.5
		c-12-12.1-23.6-24.6-36.5-35.8c-3.5-3-10.7-1.6-16.2-2.2c0.8,5.4-0.3,12.6,2.7,16C538.6,479.9,549.4,488.7,561.5,499.8z
		 M438.7,500.1c11.6-11,22.3-19.9,31.4-30.3c3.1-3.5,4.9-12.5,2.7-15.6c-5-7-11.7-3.4-17,2c-11.4,11.5-22.7,22.9-34.3,34.2
		c-6.9,6.7-7.1,12.8-0.1,19.5c11.6,11.2,23,22.7,34.3,34.2c5.3,5.3,11.1,8.9,17.3,2.5c6.5-6.7,1.5-12.3-3.5-17.2
		C459.9,520.1,450.2,511,438.7,500.1z"/>
	<path d="M432.6,136c0-8.5,0-17,0-26.3c17.8,0,35.1,0,53.3,0c0,8.2,0,16.1,0,25.5c18.2,0,35.4,0,54.3,0c0,10.2,0,19,0,27.8l0.4-0.4
		c-8.8,0-17.6,0-26.1,0c0,19.3,0,36.5,0,54.7c9,0,16.9,0,26.3,0c0,9.2,0,17.4,0,25.5c36.7,0,71.9,0,106.9,0c0-9,0-16.9,0-26.3
		c-8.9,0-17.2,0-26.1,0c0-9.9,0-18.4,0-26.9l-0.4,0.4c8.8,0,17.6,0,27.7,0c0-10.1,0-18.3,0-27c9.8,0,18.3,0,26.7,0l-0.4-0.4
		c0,17.4,0,34.8,0,53.5c26.9,0,53,0,81.5,0c0,9.9,0,18.6,0,27.4c0,0,0.4-0.4,0.4-0.4c-8.5,0.4-17,0.8-26.9,1.3c0,8.1,0,16.4,0,26
		c-54.6,0-107.8,0-162.4,0c0,9.6,0,17.9,0,26.8c-9.3,0-17.3,0-26.7,0c0-8.1,0-16.4,0-26.1c-9.7,0-17.9,0-27.1,0c0-9.3,0-17.3,0-26.2
		c-9.2,0-17.4,0-27.2,0c0,26.5,0,53.3,0,80.1c-8.8,0-17.5,0-26.3,0c0,9.7,0,17.9,0,25.9c9.1,0,17.3,0,26,0c0-9.4,0-17.8,0-26.3
		c8.4,0,16.8,0,26.6,0c0,9.1,0,17.3,0,27.3c10,0,18.8,0,27.5,0l-0.4-0.4c0,4.9,0,9.8,0,16.3c-10.7,0-20.9,0-31.1,0
		c-32.8,0-65.6-0.1-98.4,0.2c-6.1,0.1-13.7-0.1-18.1,3.2c-12.9,9.5-26.9,7.8-41.1,7.5l0.4,0.4c0-8.8,0-17.6,0-27.4
		c-10.4,0-18.9,0-27.4,0l0.4,0.4c0-8.8,0-17.6,0-26.9c19.1,0,36.5,0,54,0l-0.4-0.4c0,8.8,0,17.6,0,26.2c19.2,0,36.4,0,55,0
		c0-18.2,0-35.4,0-53.5c9.3,0,17.2,0,25.4,0c0-27.1,0-53.3,0-80.9c-18,0-35.3,0-53,0c0-9.9,0-18.3,0-26.8l-0.4,0.4
		c8.8,0,17.6,0,27.4,0c0-10.4,0-18.9,0-27.4l-0.4,0.4c9,0,17.9,0.1,26.9,0.1c0,8.7,0,17.4,0,25.6c10.5,0,18.6,0,26.6,0
		c0-9,0-16.8,0-25.2c-9.4,0-18.2,0-26.9,0c0-9.1,0-18.1,0-27.9c-9.8,0-18.2,0-26.6,0L432.6,136z"/>
	<path d="M864.1,729.5c0,8.5,0,17,0,27.4c36.8,0,72.6,0,108.3,0l-0.4-0.4c0,8.5,0,16.9,0,26.8c9.3,0,17.5,0,26.5,0
		c0,18.3,0,35.2,0,53.6c-17,0-34.2,0-53.5,0c0,10.2,0,19,0,27.8l0.4-0.4c-9,0-18-0.1-26.9-0.1c0-17.7,0-35.5,0-54.1
		c9.7,0,17.7,0,25.9,0c0-9.2,0-17.4,0-25.6c-18.1,0-35.3,0-52.1,0c0,27.2,0,53.4,0,79.3c9.6,0,18.1,0,26.5,0
		c-0.3,9.3-0.5,18.6-0.8,27.9l0.4-0.4c-35.4,0-70.7,0-107.6,0c0,9,0,17.2,0,26.3c-9.6,0-17.9,0-27.1,0c0-8.1,0-16,0-25.3
		c-9.1,0-17.4,0-27,0c0-18.6,0-35.8,0-55c-10.1,0-18.9,0-27.7,0l0.4,0.4c0-9.1,0-18.2,0.1-27.3l-0.4,0.4c8.8,0,17.6,0,27.3,0
		c0-46.5,0-90.9,0-135.4l-0.4,0.4c9.1,0,18.2,0,27.4,0l-0.4-0.4c0,8.8,0,17.5,0,27.6c10,0,18.3,0,27.8,0c0,9.6,0,17.8,0,26.7
		c18.8,0,36.2,0,53.5,0L864.1,729.5z M863.7,784.6c-27.2,0-53.4,0-79.3,0c0,27.2,0,53.4,0,79.3c26.9,0,52.8,0,79.3,0
		C863.7,837.4,863.7,811.5,863.7,784.6z"/>
	<path d="M945,567.5c0,17.5,0,34.9,0,53.9c-17.9,0-35.1,0-53.1,0c0,9.4,0,17.3,0,26.7c8,0,16.2,0,26,0c0,9.7,0,17.9,0,27.1
		c9.4,0,17.3,0,26.3,0c0,18.2,0,35.4,0,54.3c-26.6,0-53.4,0-80.2,0c0,0,0.4,0.4,0.4,0.4c-0.1-9.1-0.3-18.2-0.4-27.3
		c8.8,0,17.5,0,26.3,0c0-9.7,0-17.9,0-25.9c-9.1,0-17.3,0-25.9,0c0,9.4,0,17.8,0,26.3c-8.8,0-17.6,0-27.7,0c0-10.2,0-18.4,0-27.4
		c-18.8,0-36.2,0-53.6,0l0.4,0.4c-0.1-9.1-0.3-18.2-0.4-27.3c26.7,0,53.4,0,80.3,0c0-9.6,0-17.8,0-25.9c-27.1,0-53.3,0-79.9,0
		c0,9.4,0,17.8,0,26.3c-9.1-0.1-18.2-0.3-27.3-0.4l0.4,0.4c0-17.4,0-34.9,0-53.8c17.7,0,35,0,53.6,0c0-18.6,0-35.9,0-54
		c9.3,0,17.3,0,26.6,0c0-9.2,0-17.4,0-27.1c19.2,0,36.9,0,54.7,0l-0.4-0.4c0,17.8,0,35.5,0,54.7c-18.8,0-36,0-53.2,0
		c0,9.4,0,17.3,0,25.7c26.9,0,53.1,0,80.7,0c0-9,0-17.2,0-26c9.9,0,18.4,0,26.8,0L945,567.5z"/>
	<path d="M188.4,189.2c-62.8,0-124.7,0-187.3,0c0-62.5,0-124.3,0-187.3c61.9,0,124.1,0,187.3,0C188.4,63.7,188.4,125.9,188.4,189.2z
		 M28,161.8c45.3,0,89.5,0,133.3,0c0-45.2,0-89.4,0-133.3c-45,0-88.8,0-133.3,0C28,73.2,28,117,28,161.8z"/>
	<path d="M810.9,189c0-62.5,0-124.3,0-187.2c62.2,0,124.4,0,187.5,0c0,62.1,0,124.3,0,187.2C936.2,189,874.4,189,810.9,189z
		 M971.4,162.5c0-45.4,0-89.5,0-133.8c-45,0-89.2,0-133.1,0c0,45.1,0,89.3,0,133.8C883,162.5,926.5,162.5,971.4,162.5z"/>
	<path d="M1.5,811.2c62.5,0,124.4,0,187.1,0c0,62.7,0,124.9,0,187.8c-62.3,0-124.2,0-187.1,0C1.5,936.9,1.5,874.7,1.5,811.2z
		 M28.3,837.9c0,45.4,0,89.6,0,133.7c45.1,0,89.2,0,133,0c0-45.2,0-89.4,0-133.7C116.7,837.9,73.1,837.9,28.3,837.9z"/>
	<path d="M567.5,702.9c0-18.1-0.1-36.2-0.1-54.3l-0.4,0.4c35.5,0,70.9,0,107.3,0c0-9.3,0-17.5,0-26.7c-8.1,0-16,0-25,0
		c0-18.2,0-35.4,0-53.6c8,0,16.2,0,25.4,0c0,8.1,0,16,0,25.5c18.2,0,35.4,0,53.6,0c0,9.7,0,17.9,0,27.1c-8.1,0-16.1,0-25,0
		c0,9.2,0,17.4,0,27.7c17.5,0,35.3,0,53.2,0c0,0-0.4-0.4-0.4-0.4c0,9.1,0,18.2,0,27.4l0.4-0.4c-8.8,0-17.6,0-27.7,0
		c0,28.1,0,54.3,0,81.4c-27.8,0-54.2,0-80.6,0c0-17.8,0-35.6,0-53.2c-9.7,0-18,0-27.1,0c0,8.9,0,16.8,0,25.3c-9.2,0-17.4,0-27.1,0
		c0-9,0-17.3,0-26.4c-9.9,0-18.3,0-26.8,0L567.5,702.9z M676.4,675.9c0,17.7,0,35.2,0,52.8c8.8,0,17,0,24.9,0c0-18.2,0-35.4,0-52.8
		C692.6,675.9,685,675.9,676.4,675.9z"/>
	<path d="M648.2,352c8.5,0,17,0,26.9,0c0-18.3,0-35.6,0-53.5c9.4,0,17.3,0,26.7,0c0,26.1,0,52.4,0,80.1c9.7,0,17.9,0,27.2,0
		c0,9.4,0,17.3,0,26.2c9.2,0,17.4,0,27.2,0c0-8.2,0-16.5,0-25.7c18.4,0,35.3,0,53.7,0c0-18.2,0-35.5,0-53.5c9.4,0,17.3,0,26.7,0
		c0,7.8,0,16.1,0,25.8c9.7,0,17.9,0,27,0c0,18.4,0,35.3,0,53.7c-25.9,0-52.1,0-80.5,0c0,10.2,0,19,0,27.8l0.4-0.4
		c-35.4,0-70.8,0-107.2,0c0,9.2,0,17.4,0,27.1c17.3,0,34.5,0,52.4,0c0,9.3,0,17.3,0,26.2c-26.2,0-52.4,0-80.1,0
		c0-26.7,0-53.4,0-80.2l-0.4,0.4c8.8,0,17.6,0,26.3,0c0-10.1,0-18.3,0-27.4c-9.4,0-17.8,0-26.3,0l0.4,0.4c0-9.1,0-18.2,0-27.3
		L648.2,352z"/>
	<path d="M676.1,28.5c0-8.5,0-17,0-26.6c25.9,0,52.2,0,79.9,0c0,17,0,34.2,0,52.4c9.4,0,17.3,0,26.3,0c0,45.2,0,89.4,0,134.6
		c-8,0-16.2,0-25.5,0c0-8.1,0-16.1,0-25c-9.2,0-17.4,0-27.2,0c0,8,0,16.3,0,25.2c-9.3,0-17.3,0-26.7,0c0-8,0-16.2,0-26.5
		c-10.2,0-19,0-27.8,0c0,0,0.4,0.4,0.4,0.4c0-9.1,0-18.2,0-27.4l-0.4,0.4c8.8,0,17.6,0,26.2,0c0-10.1,0-18.3,0-27.4
		c-9.4,0-17.8,0-26.2,0l0.4,0.4c0-8.4,0-16.9,0-26.7c8.7,0,16.9,0,26.6,0c0-9.6,0-17.8,0-26.9c9.3,0,17.2,0,26.2,0
		c0-9.1,0-17.3,0-27.2c-17.2,0-34.9,0-52.6,0C675.6,28.1,676.1,28.5,676.1,28.5z"/>
	<path d="M270.6,783.8c0-8.5,0-16.9,0-26.8c17.7,0,35,0,53,0c0-18.6,0-35.8,0-54c-8.3,0-16.3,0-25.2,0c0-9.1,0-17.4,0-27.1
		c17,0,34.2,0,52.3,0c0.4-9.6,0.8-17.9,1.2-27c8.6,0,16.6,0,25.9,0c0-9,0-17.2,0-27.4c26.1,19.3,54.7,6.9,81.3,12.5
		c0,5.1,0,10,0,14.8l0.4-0.4c-8.8,0-17.6,0-27.4,0c0,10.4,0,18.9,0,27.4l0.4-0.4c-8.8,0-17.6,0-27,0c0,28.5,0,54.9,0,81.4
		c-8.8,0-17.6,0-27.7,0c0-10.1,0-18.4,0-26.6c-9.3,0-17.2,0-25.7,0c0,17.8,0,35,0,53.6c8.9,0,17.1,0,25.4,0c0,18.6,0,35.8,0,53.5
		c-9.4,0-17.8,0-26.3,0l0.4,0.4c0-8.8,0-17.5,0-27.6c-10,0-18.3,0-27.8,0c0-9.6,0-17.8,0-26.7c-18.8,0-36.2,0-53.5,0L270.6,783.8z"
		/>
	<path d="M108.2,351.6c0,18.1,0,36.2,0,54.4l0.4-0.4c-8.8,0-17.6,0-27.8,0c0-9.8,0-18,0-27.2c-9.4,0-17.3,0-26.6,0
		c0-9.2,0-17.4,0-25.7c-9.7,0-17.9,0-27,0c0,27.4,0,53.8,0,80.2l0.4-0.4c-8.5,0-16.9,0-26.3,0c0-53.8,0-106.9,0-161.6
		c17.3,0,34.6,0,52.8,0c0-9.4,0-17.3,0-26.6c9.2,0,17.5,0,27.1,0c0-9.7,0-17.9,0-26.8c9.3,0,17.3,0,26.2,0c0,17.1,0,34.3,0,53
		c-8.1,0-16.4,0-25.3,0c0,9.3,0,17.3,0,26.7c8,0,16.3,0,26.1,0c0,10.2,0,19,0,27.8l0.4-0.4c-8.8,0-17.6,0-26.3,0
		c0,10.1,0,18.3,0,27.4c9.4,0,17.8,0,26.3,0L108.2,351.6z"/>
	<path d="M378.6,918.4c-17.4,0-34.9,0-53.7,0c0,18.1,0,35.4,0,54c-9.6,0-17.9,0-27,0c0,9.3,0,17.3,0,26.2c-18.1,0-35.3,0-53.5,0
		c0-17,0-34.2,0-52.4c8.4-0.4,16.6-0.7,25.8-1.2c0-17.6,0-34.5,0-52.9c9.1,0,17.4,0,27.5,0c0-19.2,0-37,0-54.7l-0.4,0.4
		c18.1,0,36.2,0,54.4,0l-0.4-0.4c0.1,9.1,0.3,18.2,0.4,27.3c-8.8,0-17.5,0-26.3,0c0,9.7,0,17.9,0,25.9c9.1,0,17.3,0,26,0
		c0-9.4,0-17.8,0-26.3c8.8,0,17.6,0,27,0c0,19.5,0,37,0,54.4L378.6,918.4z"/>
	<path d="M162.2,486.9c18.1,0,36.2,0,54.4,0l-0.4-0.4c0,8.8,0,17.6,0,26.3c10.1,0,18.3,0,27.4,0c0-9.4,0-17.8,0-26.3l-0.4,0.4
		c17.4,0,34.8,0,53.6,0c0-9.1,0-17.3,0-26.4c23.9,0,46.5,0,69.8,0c0,17.6,0,34.8,0,52.5c-5,0.4-9.3,0.7-15.5,1.2c0,9,0,17.8,0,26.6
		l0.4-0.4c-8.5,0-16.9,0-26.8,0c0-8.9,0-17.1,0-26.1c-18.3,0-35.2,0-53.6,0c0,8,0,16.3,0,26.1c-28.2,0-55,0-81.8,0l0.4,0.4
		c0-8.8,0-17.6,0-27.7c-10.1,0-18.3,0-27,0c0-9.8,0-18.3,0-26.7L162.2,486.9z"/>
	<path d="M459.2,648.9c9.2,0.1,18.3,0.1,27.5,0.2l-0.3-0.4c0,8.4,0,16.8,0,26.6c9,0,17.2,0,26.8,0c0,9.5,0,17.8,0,27.6
		c19,0,36.7,0,54.4,0c0,0-0.4-0.4-0.4-0.4c0,8.8,0,17.5,0,27.7c-9.7,0-17.9,0-26.6,0c0,9.8,0,18.3,0,26.7c-8.8,0-17.6,0-27.7,0
		c0,9.7,0,17.9,0,27c-18.8,0-36.3,0-53.7,0c0-8.8,0-17.6,0-27.7c10.1,0,18.4,0,26.2,0c0-18.6,0-35.8,0-52.7c-9,0-16.9,0-26.2,0
		c0,8.9,0,17.2,0,25.3c-9.6,0-17.9,0-26.6,0c0-18.4,0-35.8,0-53.2l-0.4,0.4c8.8,0,17.6,0,27.4,0c0-10.4,0-18.9,0-27.4L459.2,648.9z"
		/>
	<path d="M81.6,675.9c0-26.5,0-52.9,0-80.3c8.8,0,17.1,0,26.3,0c0,8.1,0,16.1,0,25c9.2,0,17.4,0,27.7,0c0-17.5,0-35.3,0-53.1
		l-0.4,0.4c9.1,0,18.2,0,27.4,0l-0.4-0.4c0,8.5,0,16.9,0,26.3c18.2,0,35.4,0,53.6,0c0-8.1,0-16,0-25c18.1,0,35.4,0,53.6,0
		c0,7.8,0,16,0,25.7c-8.2,0-16.5,0-25.7,0c0,9.3,0,17.3,0,26.6c-27.1,0-53.4,0-81.6,0c0,10.1,0,18.9,0,27.7l0.4-0.4
		c-17.8,0-35.6,0-54.4,0c0,10.4,0,18.9,0,27.4l0.4-0.4c-9.1,0-18.2,0-27.4,0L81.6,675.9z"/>
	<path d="M891.4,513.9c0-8.5,0-16.9,0-26.8c-9.1,0-17.4,0-26.4,0c0-9.6,0-17.9,0-27.1c8.4,0,16.3,0,25.7,0c0-9.1,0-17.4,0-27.1
		c19.1,0,36.9,0,54.7,0l-0.4-0.4c0,17.4,0,34.9,0,53.2c9.2,0,17.4,0,27.1,0c0-8.4,0-16.6,0-25.5c9.3,0,17.2,0,26.1,0
		c0,26.2,0,52.4,0,80.1c-8.6,0-17.4,0-26.2,0c0,0,0.4,0.4,0.4,0.4c0-8.8,0-17.6,0-26.3c-10.1,0-18.3,0-27.4,0c0,9.4,0,17.8,0,26.3
		l0.4-0.4c-8.8,0-17.5,0-27.7,0c0-9.7,0-17.9,0-27c-9.8,0-18.3,0-26.7,0L891.4,513.9z"/>
	<path d="M243.6,351.6c-26.3,0-52.7,0-80.1,0c0-8.5,0-16.7,0-26.3c7.8,0,16,0,26.2,0c0-10.1,0-18.9,0-27.6l-0.4,0.4
		c8.5,0,17,0,26.9,0c0-9.3,0-17.6,0-26.8c9.3,0,17.3,0,26.6,0c0-9.2,0-17.4,0-27.2c19.2,0,37,0,54.8,0c0,0-0.4-0.4-0.4-0.4
		c0,26.8,0,53.6,0,80.1c-9.8,0-18.1,0-27.3,0c0-9,0-16.9,0-25.1c-9.2,0-17.5,0-26.7,0c0,18.3,0,35.8,0,53.3L243.6,351.6z"/>
	<path d="M702.1,864.5c0,35.4,0,70.8,0,107.2c-8.7,0-16.9,0-26.6,0c0-26.2,0-52.4,0-79.3c-9.3,0-17.2,0-26.6,0c0,8,0,16.3,0,26.1
		c-10.2,0-19,0-27.8,0l0.4,0.4c0-18.1,0-36.2,0-54.3l-0.4,0.4c8.8,0,17.6,0,27,0c0-28.5,0-55,0-81.4c8.8,0,17.6,0,27.6,0
		c0,28.1,0,54.3,0,81.4c9.8,0,18.3,0,26.7,0L702.1,864.5z"/>
	<path d="M945.5,378.9c0-8.5,0-17,0-26.9c8.8,0,17.1,0,26.1,0c0-27.3,0-53.3,0-80.6c-8,0-16.3,0-25.4,0c0-18.7,0-35.9,0-53.9
		c17.2,0,34.1,0,52.1,0c0,62,0,124.2,0,188c-8.5,0-17.3,0-26.1,0c0,0,0.4,0.4,0.4,0.4c0-8.8,0-17.6,0-27.4c-10.4,0-18.9,0-27.4,0
		L945.5,378.9z"/>
	<path d="M486.6,28c0-8.5,0-16.9,0-26.3c35.8,0,71,0,107.2,0c0.4,8.4,0.7,16.6,1.2,26.7c27.5,0,54.3,0,81.1,0c0,0-0.4-0.4-0.4-0.4
		c0,8.4,0,16.9,0,26.7c-27.6,0-53.8,0-81,0c0,9.3,0,17.2,0,26.1c-9.2,0-17.4,0-27.1,0c0-8.2,0-16.5,0-25.6c-9.3,0-17.2,0-26.6,0
		c0-9.2,0-17.4,0-27.6c-19.2,0-37,0-54.7,0L486.6,28z"/>
	<path d="M108.2,405.9c8.5,0,16.9,0,26.8,0c0,8.8,0,17,0,26.7c18.6,0,35.9,0,53.7,0c0,9.3,0,17.2,0,26.6c-8.1,0-16.4,0-26.5,0
		c0,10.2,0,19,0,27.8c0,0,0.4-0.4,0.4-0.4c-8.8,0-17.6,0-27.7,0c0,10.1,0,18.3,0,27c-9.8,0-18.3,0-26.7,0l0.4,0.4
		c0-17.8,0-35.6,0-54.8c-10.2,0-18.5,0-26.5,0c0-9.4,0-17.3,0-26.7c9,0,17.2,0,26.5,0c0-9.9,0-18.4,0-26.9L108.2,405.9z"/>
	<path d="M567.5,163c0-17.5,0-34.9,0-54c36.4,0,72.2,0,108,0c0,0-0.4-0.4-0.4-0.4c0,9.1,0,18.2,0,27.4l0.4-0.4
		c-17.8,0-35.6,0-54.4,0c0,19.4,0,36.9,0,54.4l0.4-0.4c-9.1,0.1-18.2,0.3-27.4,0.4c0-8.8,0-17.6,0-27.4c-10,0-18.5,0-27,0L567.5,163
		z"/>
	<path d="M783,432.9c17.5,0,34.9,0,53.3,0c0,17.9,0,35.1,0,53.3c-8.1,0-16,0-25.4,0c0,9.2,0,17.4,0,26.6c-18.7,0-35.9,0-53.9,0
		c0-17.2,0-34.1,0-52.5c8,0,16.3,0,26.4,0c0-10.2,0-19,0-27.9C783.4,432.5,783,432.9,783,432.9z"/>
	<path d="M271,162c-8.5,0.4-17,0.8-26.9,1.3c0,8.1,0,16.4,0,25.5c-9.6,0-17.9,0-26.9,0c0-35.2,0-70.3,0-106.3c8.2,0,16.1,0,25.4,0
		c0,7.8,0,16.1,0,25.7c18.6,0,35.8,0,53.9,0c0,9.6,0,17.8,0,27c-8.2,0-16.1,0-25.9,0c0,9.6,0,18.4,0,27.1
		C270.6,162.5,271,162,271,162z"/>
	<path d="M108.2,756.5c0,8.5,0,17,0,26.3c-35.8,0-71,0-107,0c0-8.1,0-16.1,0-25.5c7.9,0,16.2,0,26.5,0c0-10.2,0-19,0-27.8l-0.4,0.4
		c18.1,0,36.2,0,54.3,0c0,0-0.4-0.4-0.4-0.4c0,8.8,0,17.6,0,27.4c10.4,0,18.9,0,27.4,0L108.2,756.5z"/>
	<path d="M945,864.8c8.5,0,16.9,0,26.8,0c0,8.8,0,17.1,0,26.7c9.6,0,17.9,0,26.7,0c0,18.3,0,35.2,0,53.1c-8.2,0-16.4,0-26.1,0
		c0-8.2,0-16.4,0-25.3c-9.3,0-17.2,0-26.6,0c0,8,0,16.3,0,26.1c-10.2,0-19,0-27.8,0l0.4,0.4c0-18.1,0-36.2,0-54.3
		c0,0-0.4,0.4-0.4,0.4c8.8,0,17.6,0,27.4,0c0-10.4,0-18.9,0-27.4L945,864.8z"/>
	<path d="M621.1,918.4c0,8.4,0,16.9,0,26.7c9,0,17.2,0,26.3,0c0,9.5,0,17.7,0,27.3c-17.9,0-35.6,0-53.3,0l0.4,0.4
		c0-8.5,0-16.9,0-26.7c-18.1,0-35.4,0-54,0c0-19.1,0-36.8,0-54.6l-0.4,0.4c8.8,0,17.6,0,27.7,0c0,9.7,0,17.9,0,27
		c18.8,0,36.2,0,53.6,0L621.1,918.4z"/>
	<path d="M836.5,972c0,8.5,0,17,0,26.5c-25.8,0-52,0-79.7,0c0-7.7,0-16,0-25.6c-9.6,0-17.9,0-26.8,0c0-18.6,0-35.8,0-53.7
		c8.5,0,16.4,0,25.8,0c0,8.3,0,16.5,0,26.2c9.6,0,17.9,0,27,0c0,9.3,0,17.2,0,26.9c18.6,0,36.3,0,54.1,0
		C837,972.4,836.5,972,836.5,972z"/>
	<path d="M243.2,675.9c8.5,0,17,0,26.3,0c0,17.8,0,35.1,0,53.3c-8.2,0-16.1,0-25.5,0c0,9.2,0,17.4,0,27.3c-19.2,0-37,0-54.8,0
		l0.4,0.4c-0.1-9.1-0.2-18.3-0.4-27.4c8.8,0,17.6,0,27.4,0c0-10,0-18.5,0-27l-0.4,0.4c8.8,0,17.6,0,27.4,0c0-10.4,0-18.9,0-27.4
		L243.2,675.9z"/>
	<path d="M162.6,756.5c-18.1,0-36.3,0-54.4,0c0,0,0.4,0.4,0.4,0.4c0-8.8,0-17.6,0-27.4c-10.4,0-18.9,0-27.4,0c0,0,0.4,0.4,0.4,0.4
		c0-9.1,0-18.3,0-27.4c0,0-0.4,0.4-0.4,0.4c8.8,0,17.6,0,27.4,0c0-10.4,0-18.9,0-27.4l-0.4,0.4c8.8,0,17.5,0,27.6,0
		c0,18.7,0,35.9,0,53.6c9.8,0,18.3,0,26.7,0c-0.1,9.1-0.2,18.3-0.4,27.4L162.6,756.5z"/>
	<path d="M135.6,567.5c-17.4,0-34.8,0-53.6,0c0-8.7,0-16.9,0-27.1c-10.1,0-18.9,0-27.7,0l0.4,0.4c0-18.1,0-36.2,0-54.3l-0.4,0.4
		c8.8,0,17.6,0,27.7,0c0,9.7,0,17.9,0,27c9.8,0,18.3,0,26.7,0l-0.4-0.4c0,8.8,0,17.6,0,27.7c10.1,0,18.3,0,27,0c0,9.8,0,18.3,0,26.7
		L135.6,567.5z"/>
	<path d="M351.6,54.6c-8.5,0-17,0-26.9,0c0,9.2,0,17.5,0,26.5c-9.3,0-17.3,0-26.3,0c0-16.9,0-34.2,0-52.9c8,0,16.2,0,25.4,0
		c0-9.3,0-17.3,0-26.3c18.2,0,35.4,0,54.3,0c0,8.5,0,17.3,0,26.1l0.4-0.4c-8.8,0-17.6,0-27.4,0c0,10.4,0,18.9,0,27.4L351.6,54.6z"/>
	<path d="M297.2,217c8.5,0,16.9,0,26.9,0c0-18.3,0-35.5,0-53.5c9.3,0,17.3,0,26.6,0c0,8,0,16.2,0,26.5c10.2,0,19,0,27.8,0
		c0,0-0.4-0.4-0.4-0.4c0,8.8,0,17.5,0,27.6c-9.7,0-17.9,0-27.5,0c0,9.6,0,17.8,0,26.4c-18.8,0-36.1,0-53.5,0c0,0,0.4,0.4,0.4,0.4
		c0-9.1,0-18.2,0-27.4L297.2,217z"/>
	<path d="M432.2,972.4c0,8.5,0,17,0,26.3c-26.8,0-53.1,0-80.1,0c0-8.2,0-16.1,0-25.5c8,0,16.2,0,26.5,0c0-19.2,0-37,0-54.8
		c0,0-0.4,0.4-0.4,0.4c8.8,0,17.5,0,27.6,0c0,18.7,0,35.9,0,54c9.8,0,18.3,0,26.7,0L432.2,972.4z"/>
	<path d="M459.1,918.5c0,8.5,0,17,0,26.9c18.2,0,35.5,0,53.5,0c0,9.3,0,17.3,0,26.7c-8,0-16.3,0-26,0c0,9.7,0,18,0,26.9
		c-9.3,0-17.3,0-26.7,0c0-8,0-16.3,0-26.5c-10.2,0-19,0-27.8,0c0,0,0.4,0.4,0.4,0.4c0-17.8,0-35.6,0-54c10,0,18.5,0,27,0
		L459.1,918.5z"/>
	<path d="M378.2,28c8.4,0,16.9,0,26.3,0c0,17.6,0,34.8,0,53.4c-8.1,0-16.3,0-26.3,0c0,19.1,0,36.8,0,54.5l0.4-0.4
		c-8.5,0-16.9,0-27,0c0-27.4,0-54.2,0-81c0,0-0.4,0.4-0.4,0.4c8.8,0,17.6,0,27.4,0c0-10.4,0-18.9,0-27.4L378.2,28z"/>
	<path d="M918.1,945.4c0,8.4,0,16.9,0,26.7c-8.6,0-16.9,0-26.4,0c0,9.5,0,17.8,0,26.8c-9.6,0-17.8,0-26.9,0c0-8.2,0-16.1,0-25.4
		c-9.9-0.5-19.1-0.9-28.2-1.4c0,0,0.4,0.4,0.4,0.4c0-8.4,0-16.8,0-26.6c9.5,0,17.8,0,26.9,0c0-9.2,0-17.2,0-26.1
		c9.1,0,17.3,0,26.9,0c0,7.9,0,16.1,0,26.1c10.1,0,18.9,0,27.7,0C918.5,945.8,918.1,945.4,918.1,945.4z"/>
	<path d="M351.1,540.9c4.9,0,9.8,0,15.5,0c0,18,0,35.3,0,53.3c-4.7,0.3-9.1,0.6-14.8,1c0,8.4,0,16.7,0,25.8c-9.3,0-17.2,0-26.7,0
		c0-7.9,0-16.1,0-25.9c-9.7,0-17.9,0-26.9,0c0-9.4,0-17.3,0-26.7c16.9,0,34.2,0,53.4,0c0-10.2,0-19,0-27.8
		C351.5,540.5,351.1,540.9,351.1,540.9z"/>
	<path d="M269.6,54.2c-17.5,0-34.3,0-52.2,0c0-17.2,0-34.4,0-52.5c17.1,0,34.3,0,52.2,0C269.6,18.8,269.6,35.7,269.6,54.2z"/>
	<path d="M837.8,244.1c0-9.8,0-17.8,0-26.5c26.7,0,52.9,0,79.8,0c0,17.4,0,34.3,0,52.2c-8.3,0-16.5,0-26.2,0c0-8.2,0-16.5,0-25.7
		C873.1,244.1,856.1,244.1,837.8,244.1z"/>
	<path d="M162.2,648.9c26.5,0,52.9,0,81,0c0,9.4,0,18.2,0,27c0,0,0.4-0.4,0.4-0.4c-8.8,0-17.6,0-27.4,0c0,10.4,0,18.9,0,27.4
		l0.4-0.4c-9.1,0.1-18.3,0.2-27.4,0.4c0-8.8,0-17.6,0-27.6c-9.7,0-17.9,0-26.6,0c0-9.8,0-18.3,0-26.7L162.2,648.9z"/>
	<path d="M648.6,351.6c-17.4,0-34.8,0-53.2,0c0-17.7,0-34.8,0-52.9c17,0,34.2,0,52.9,0c0,17.8,0,35.6,0,53.3
		C648.2,352,648.6,351.6,648.6,351.6z"/>
	<path d="M972.4,756.9c0-26.4,0-52.8,0-80.2c8.6,0,16.8,0,25.9,0c0,25.9,0,52.1,0,79.8c-8.8,0-17.5,0-26.3,0
		C972,756.5,972.4,756.9,972.4,756.9z"/>
	<path d="M702.9,566.8c0-8.9,0-16.8,0-25.4c26.5,0,52.3,0,79.3,0c0,8,0,16.2,0,25.4C756.4,566.8,730.2,566.8,702.9,566.8z"/>
	<path d="M243.6,378.9c0-9.1,0-18.2,0-27.3c0,0-0.4,0.4-0.4,0.4c27.1,0,54.2,0,81.4,0l-0.4-0.4c0,9.1,0,18.2,0,27.4l0.4-0.4
		c-27.1,0-54.2,0-81.3,0L243.6,378.9z"/>
	<path d="M243.2,378.5c0,9.1,0,18.3-0.1,27.4l0.4-0.4c-26.4,0-52.8,0-80.2,0c0-8.7,0-16.9,0-26.6c26.7,0,53.5,0,80.2,0
		C243.6,378.9,243.2,378.5,243.2,378.5z"/>
	<path d="M756.1,297.6c0,8.5,0,16.9,0,26.8c9.2,0,17.5,0,26.5,0c0,9.6,0,17.9,0,26.7c-17.5,0-34.3,0-52.2,0c0-17.2,0-34.4,0-53.1
		c8.6,0,17.4,0,26.2,0L756.1,297.6z"/>
	<path d="M378.1,136c18.1,0,36.3,0,54.4,0c0,0-0.4-0.4-0.4-0.4c0,9.1,0,18.2,0,27.4l0.4-0.4c-8.8,0-17.6,0-27.4,0
		c0,10.4,0,18.9,0,27.4l0.4-0.4c-9.1,0-18.2,0-27.4,0c0,0,0.4,0.4,0.4,0.4c0-18.1,0-36.3,0-54.4C378.5,135.6,378.1,136,378.1,136z"
		/>
	<path d="M27.6,648.5c-8.5,0-16.9,0-26.3,0c0-17.8,0-35,0-53c17.4,0,34.6,0,52.4,0c0,8.4,0,16.3,0,25.6c-8.1,0-16.3,0-26.6,0
		c0,10.1,0,18.9,0,27.7L27.6,648.5z"/>
	<path d="M270.6,810.4c-17.4,0-34.8,0-53.2,0c0-8.7,0-16.9,0-26.6c17.7,0,35.5,0,53.2,0c0,0-0.4-0.4-0.4-0.4c0,9.1,0,18.2,0,27.4
		L270.6,810.4z"/>
	<path d="M756.5,298c0.1-18.3,0.3-36.6,0.5-55c0,0-0.4,0.4-0.4,0.4c8.4,0,16.8,0,25.9,0c0,18.4,0,35.6,0,54.2c-8.9,0-17.7,0-26.4,0
		C756.1,297.6,756.5,298,756.5,298z"/>
	<path d="M297.6,216.6c-8.4,0-16.9,0-26.6,0c0-18.5,0-36.5,0-54.6c0,0-0.4,0.4-0.4,0.4c8.4,0,16.8,0,26.6,0c0,19.1,0,36.8,0,54.6
		C297.2,217,297.6,216.6,297.6,216.6z"/>
	<path d="M189.6,297.6c-17.4,0-34.8,0-53.2,0c0-8.6,0-16.8,0-25.9c16.9,0,34.1,0,52.8,0c0,8.8,0,17.6,0,26.3
		C189.3,298,189.6,297.6,189.6,297.6z"/>
	<path d="M918.9,378c-8.8,0-17.5,0-27.4,0c0-18.1,0-35.7,0-53.4l-0.4,0.4c8.4,0,16.9,0,27.4,0c0,18.1,0,35.8,0,53.4
		C918.5,378.4,918.9,378,918.9,378z"/>
	<path d="M513.1,891.5c0,8.5,0,17,0,27c-18.4,0-36.2,0-54,0c0,0,0.4,0.4,0.4,0.4c-0.1-9.1-0.3-18.2-0.4-27.4
		c18.1,0.1,36.3,0.2,54.4,0.4L513.1,891.5z"/>
	<path d="M351.2,378.5c0,17.4,0,34.9,0,53.2c-8.7,0-16.9,0-26.6,0c0-17.7,0-35.5,0-53.2c0,0-0.4,0.4-0.4,0.4c9.1,0,18.2,0,27.4,0
		L351.2,378.5z"/>
	<path d="M243.2,405.9c8.4,0,16.9,0,26.3,0c0,17.5,0,34.7,0,54.1c-8.3,0-17,0-25.7,0c0,0,0.4,0.4,0.4,0.4
		c-0.2-18.3-0.4-36.6-0.6-54.8C243.5,405.5,243.2,405.9,243.2,405.9z"/>
	<path d="M54.7,486.5c-8.5,0-17,0-27,0c0-18.4,0-36.2,0-54c0,0-0.4,0.4-0.4,0.4c8.8,0,17.6,0,27,0c0,19.1,0,36.5,0,54L54.7,486.5z"
		/>
	<path d="M999,973.4c0,8.9,0,16.5,0,25.2c-17.4,0-34.6,0-52.8,0c0-7.9,0-16.1,0-25.2C963.4,973.4,980.6,973.4,999,973.4z"/>
	<path d="M54.3,540.5c0,8.5,0,16.9,0,26.3c-17.7,0-34.8,0-52.9,0c0-8.1,0-16.3,0-25.9c17.8,0,35.6,0,53.3,0
		C54.7,540.9,54.3,540.5,54.3,540.5z"/>
	<path d="M594.2,972.4c0,8.5,0,16.9,0,26.3c-17.7,0-34.8,0-52.9,0c0-8.1,0-16.3,0-25.9c17.8,0,35.6,0,53.3,0
		C594.6,972.8,594.2,972.4,594.2,972.4z"/>
	<path d="M972.1,567.9c8.4,0,16.9,0,26.2,0c0,17.6,0,34.8,0,52.9c-8.1,0-16.3,0-25.8,0c0-17.8,0-35.5,0-53.3L972.1,567.9z"/>
	<path d="M675.1,514.6c0,8.9,0,16.5,0,25.1c-13.7,0-27.3,0-41.8,0c0-7.9,0-16,0-25.1C646.9,514.6,660.4,514.6,675.1,514.6z"/>
	<path d="M108.2,324.9c8.5,0,16.9,0,26.3,0c0,8.7,0,16.9,0,26.6c-8.7,0-17.5,0-26.3,0c0,0,0.4,0.4,0.4,0.4c0-9.1,0-18.2,0-27.4
		L108.2,324.9z"/>
	<path d="M53.8,676.4c9.3-0.2,18.6-0.4,27.8-0.6c0,0-0.4-0.4-0.4-0.4c0,9.1,0,18.2,0,27.4c0,0,0.4-0.4,0.4-0.4c-8.4,0-16.8,0-27.5,0
		c0-9.1,0-17.8,0-26.5C54.2,676,53.8,676.4,53.8,676.4z"/>
	<path d="M891.5,324.6c-8.4,0-16.9,0-26.3,0c0-8.7,0-16.9,0-26c8,0,16.2,0,25.9,0c0,8.8,0,17.6,0,26.3
		C891.1,325,891.5,324.6,891.5,324.6z"/>
	<path d="M189.2,540.5c0,8.5,0,17,0,27c-9.4,0-18.2,0-27,0c0,0,0.4,0.4,0.4,0.4c0-8.8,0-17.6,0-27c10,0,18.5,0,27,0L189.2,540.5z"/>
	<path d="M836.8,271.9c0,8.4,0,16.3,0,25c-8.6,0-16.8,0-25.8,0c0-8.1,0-16,0-25C818.9,271.9,827.1,271.9,836.8,271.9z"/>
	<path d="M27.7,729.5c-8.4,0-16.9,0-26.3,0c0-8.6,0-16.8,0-26c8,0,16.2,0,25.9,0c0,8.8,0,17.6,0,26.3
		C27.3,729.9,27.7,729.5,27.7,729.5z"/>
	<path d="M163.2,217.4c8.5,0,16.4,0,25.3,0c0,8.2,0,16.4,0,25.5c-8.1,0-16.3,0-25.3,0C163.2,234.8,163.2,226.9,163.2,217.4z"/>
	<path d="M540.1,163c9.1,0,18.3,0,27.4,0c0,0-0.4-0.4-0.4-0.4c0.1,9.1,0.2,18.3,0.4,27.4c-8.8,0-17.6,0-27,0c0-10.4,0-18.9,0-27.4
		L540.1,163z"/>
	<path d="M189.2,756.5c0,8.4,0,16.9,0,26.3c-8.7,0-16.9,0-26.6,0c0-8.7,0-17.5,0-26.3c0,0-0.4,0.4-0.4,0.4c9.1,0,18.2,0,27.4,0
		L189.2,756.5z"/>
	<path d="M485.7,55.6c8.8,0,17.5,0,27,0c0,8.4,0,16.2,0,25.2c-8,0-16.1,0-26.6,0c0-8.2,0-16.9,0-25.6
		C486.1,55.1,485.7,55.6,485.7,55.6z"/>
	<path d="M458.6,54.2c0,8.8,0,17.5,0,27c-8.3,0-16.2,0-25.2,0c0-7.9,0-16.1,0-26.6c8.2,0,16.9,0,25.6,0
		C459,54.6,458.6,54.2,458.6,54.2z"/>
	<path d="M486.2,27.6c-0.1,9.3-0.3,18.6-0.5,28c0,0,0.4-0.4,0.4-0.4c-9.2-0.3-18.3-0.6-27.5-0.9c0,0,0.4,0.4,0.4,0.4
		c0.2-9,0.4-17.9,0.6-26.9c0,0-0.4,0.4-0.4,0.4c9.1,0,18.2,0,27.4-0.1C486.6,28,486.2,27.6,486.2,27.6z"/>
	<path d="M459.6,27.7c-8.4,0-16.9,0-26.3,0c0-8.6,0-16.8,0-25.9c8,0,16.2,0,25.9,0c0,8.8,0,17.6,0,26.3
		C459.2,28.1,459.6,27.7,459.6,27.7z"/>
	<path d="M297.6,837.5c-8.5,0-17,0-27,0c0-9.4,0-18.2,0-27c0,0-0.4,0.4-0.4,0.4c8.8,0,17.6,0,27,0c0,10,0,18.5,0,27L297.6,837.5z"/>
	<path d="M972.5,567.6c-9.1,0-18.3,0-27.4,0c0,0,0.4,0.4,0.4,0.4c0-9.1,0-18.2,0-27.4l-0.4,0.4c9.1,0,18.2,0,27.4,0
		c0,0-0.4-0.4-0.4-0.4c0,9.1,0,18.3,0,27.4C972.1,567.9,972.5,567.6,972.5,567.6z"/>
	<path d="M216.6,486.9c0-8.4,0-16.8,0-26.6c9.4,0,18.5,0,27.5,0c0,0-0.4-0.4-0.4-0.4c-0.2,9-0.3,18-0.5,26.9c0,0,0.4-0.4,0.4-0.4
		c-9.1,0-18.2,0-27.4,0L216.6,486.9z"/>
	<path d="M729.1,837.4c0,8.5,0,17,0,27c-9.4,0-18.2,0-27,0c0,0,0.4,0.4,0.4,0.4c0-8.8,0-17.6,0-27c10,0,18.5,0,27,0L729.1,837.4z"/>
	<path d="M945.4,433c0-9.1,0-18.3,0-27.4l-0.4,0.4c9.1,0,18.2,0,27.4,0c0,0-0.4-0.4-0.4-0.4c0,8.5,0,17,0,27.1c-9.4,0-18.2,0-27,0
		C945,432.6,945.4,433,945.4,433z"/>
	<path d="M540.5,891.5c-9.1,0-18.3,0-27.4,0c0,0,0.4,0.4,0.4,0.4c-0.1-9.1-0.2-18.3-0.4-27.4c8.8,0,17.6,0,27,0
		c0,10.4,0,18.9,0,27.4L540.5,891.5z"/>
	<path d="M217.3,891.9c8.8,0,16.4,0,25.1,0c0,8.3,0,16.6,0,25.8c-7.7,0-16,0-25.1,0C217.3,909.6,217.3,901.3,217.3,891.9z"/>
	<path d="M945.5,405.6c-8.4,0-16.8,0-26.6,0c0-9.4,0-18.5,0-27.6c0,0-0.4,0.4-0.4,0.4c9,0.2,18,0.3,26.9,0.5c0,0-0.4-0.4-0.4-0.4
		c0,9.1,0,18.2,0,27.4L945.5,405.6z"/>
	<path d="M27.2,648.9c8.4,0,16.8,0,26.6,0c0,9.4,0,18.5,0,27.6c0,0,0.4-0.4,0.4-0.4c-8.4,0-16.8,0-26.6,0c0-10,0-18.8,0-27.5
		C27.6,648.5,27.2,648.9,27.2,648.9z"/>
	<path d="M540.3,351.8c0-8.4,0-16.8,0-26.2c8.9,0,17.1,0,26.2,0c0,8.2,0,16.4,0,25.8c-9,0-17.8,0-26.6,0
		C539.9,351.4,540.3,351.8,540.3,351.8z"/>
	<path d="M648.5,405.6c-4.8,0-9.7,0-14.3,0c-3.7-8.6-7.2-16.9-11.3-26.6c8.7,0,17.2,0,25.6,0c0,0-0.4-0.4-0.4-0.4
		c0,9.1,0,18.2,0,27.4L648.5,405.6z"/>
	<path d="M567.4,648.6c-8.4,0-16.8,0-26.5,0c-0.3-5-0.6-9.6-0.9-15.1c9.3,0,17.5,0,27.1,0c0,5.2,0,10.3,0,15.4
		C567.1,649,567.4,648.6,567.4,648.6z"/>
	<path d="M486.7,649c-0.2-4.8-0.4-9.7-0.7-15.4c9.1,0,17.3,0,26.6,0c0,4.4,0,9,0,15.1c-8.7,0-17.5,0-26.2,0
		C486.3,648.7,486.7,649,486.7,649z"/>
	<path class="st0" d="M524.8,443.8c-8.4,32.8-16,62.4-23.6,91.9c-1.8,7-2.4,14.5-5.7,20.6c-2.2,4.1-8.2,6-12.5,8.9
		c-2.3-4.7-7.3-10-6.4-13.9c8.3-35.4,17.2-70.7,27-105.7c1.2-4.4,7.8-8.7,12.8-10.1C518.5,435.1,522.8,441.8,524.8,443.8z"/>
	<path class="st0" d="M561.5,499.8c-12.1-11.1-22.9-19.9-32.1-30.2c-3.1-3.4-1.9-10.5-2.7-16c5.5,0.6,12.8-0.8,16.2,2.2
		c12.8,11.1,24.5,23.7,36.5,35.8c5.9,5.9,5.6,11.7-0.3,17.5c-12.1,12-23.6,24.6-36.5,35.8c-3.4,2.9-10.7,1.2-16.2,1.6
		c0.7-5.1-0.4-11.8,2.4-15C537.9,521.2,548.5,512.1,561.5,499.8z"/>
	<path class="st0" d="M438.7,500.1c11.4,10.8,21.2,20,30.8,29.2c5,4.9,10,10.5,3.5,17.2c-6.2,6.4-12.1,2.8-17.3-2.5
		c-11.4-11.5-22.8-22.9-34.3-34.2c-7-6.7-6.7-12.8,0.1-19.5c11.6-11.2,23-22.7,34.3-34.2c5.3-5.4,12-9,17-2
		c2.2,3.1,0.4,12.1-2.7,15.6C461,480.2,450.4,489.1,438.7,500.1z"/>
	<path class="st0" d="M378.2,189.6c9.1,0,18.2,0,27.4,0c0,8.5,0,16.9,0,26.8c17.7,0,35,0,53,0c0,27.6,0,53.7,0,80.9
		c-8.2,0-16.1,0-25.4,0c0,18.1,0,35.3,0,53.5c-18.6,0-35.8,0-55,0c0-8.6,0-17.4,0-26.2c8.8,0,17.5,0,26.3,0c0-9.7,0-17.9,0-25.9
		c-9.1,0-17.3,0-25.9,0c0,9.4,0,17.8,0,26.3c-17.5,0-34.9,0-54,0c0,9.3,0,18.1,0,26.9c-27.1,0-54.2,0-81.4,0c0-17.5,0-34.9,0-53.3
		c9.3,0,17.5,0,26.7,0c0,8.1,0,16.1,0,25.1c9.2,0,17.4,0,27.3,0c0-26.5,0-53.3,0-80.1c17.4,0,34.8,0,53.5,0c0-8.6,0-16.8,0-26.4
		c9.6,0,17.8,0,27.5,0C378.2,207.1,378.2,198.4,378.2,189.6z M431.7,244.5c-17.9,0-35.1,0-52.4,0c0,9,0,17.2,0,25.2
		c18.1,0,35.3,0,52.4,0C431.7,260.9,431.7,253,431.7,244.5z M325,297.1c9.4,0,17.3,0,25.6,0c0-8.9,0-17.1,0-25.4c-9,0-17.3,0-25.6,0
		C325,280.5,325,288.4,325,297.1z"/>
	<path class="st0" d="M540.5,162.6c0,8.5,0,16.9,0,27.4c9.4,0,18.2,0,27,0l-0.4-0.4c0,8.8,0,17.6,0,26.3c10.1,0,18.3,0,27.4,0
		c0-9.4,0-17.8,0-26.3l-0.4,0.4c9.1-0.1,18.2-0.3,27.4-0.4c0,8.5,0,17,0,26.9c8.9,0,17.1,0,26.1,0c0,9.3,0,17.3,0,26.3
		c-35,0-70.2,0-106.9,0c0-8,0-16.3,0-25.5c-9.4,0-17.3,0-26.3,0c0-18.2,0-35.4,0-54.7C522.9,162.6,531.7,162.6,540.5,162.6z"/>
	<path class="st0" d="M621.1,190c0-17.5,0-34.9,0-54.4c18.8,0,36.6,0,54.4,0c0,9.1,0,18.2,0,27.4c-8.4,0-16.9,0-26.7,0
		c0,8.7,0,16.9,0,27C638.7,190,629.9,190,621.1,190z"/>
	<path class="st0" d="M458.7,163.5c8.8,0,17.5,0,27,0c0,8.4,0,16.2,0,25.2c-8,0-16.1,0-26.6,0c0-8.2,0-16.9,0-25.6
		C459.1,163.1,458.7,163.5,458.7,163.5z"/>
	<path class="st0" d="M405.2,190c0-8.5,0-17,0-27.4c9.7,0,18.6,0,27.4,0c0,8.5,0,17,0,27.4C422.8,190,414,190,405.2,190z"/>
	<path class="st0" d="M432.2,163c0-9.1,0-18.2,0-27.4c8.4,0,16.8,0,26.6,0c0,9.8,0,18.8,0,27.9c0,0,0.4-0.4,0.4-0.4
		C450.1,163.1,441.1,163,432.2,163z"/>
	<path class="st0" d="M351.6,378.9c-9.1,0-18.2,0-27.4,0c0-9.1,0-18.2,0-27.4c8.5,0,17,0,27.4,0
		C351.6,361.3,351.6,370.1,351.6,378.9z"/>
	<path class="st0" d="M486.2,324.5c0,8.4,0,16.9,0,26.3c-8.6,0-16.8,0-26,0c0-8,0-16.2,0-25.9c8.8,0,17.6,0,26.3,0
		C486.6,324.9,486.2,324.5,486.2,324.5z"/>
	<path class="st0" d="M729.5,837.8c-8.5,0-17,0-27,0c0,9.4,0,18.2,0,27c-8.5,0-16.9,0-26.7,0c0-27.1,0-53.3,0-81.4
		c-10.1,0-18.8,0-27.6,0c0,0,0.4,0.4,0.4,0.4c0-9.1,0-18.2,0-27.4l-0.4,0.4c26.4,0,52.8,0,80.6,0c0-27.1,0-53.3,0-81.4
		c10.1,0,18.9,0,27.7,0c0,44.4,0,88.9,0,135.4c-9.7,0-18.5,0-27.3,0c0-8.8,0-17.5,0-26.3c-9.7,0-17.9,0-25.9,0c0,9.1,0,17.3,0,25.9
		c9.4,0,17.8,0,26.3,0C729.5,819.6,729.5,828.7,729.5,837.8z"/>
	<path class="st0" d="M863.7,784.6c0,26.9,0,52.8,0,79.3c-26.5,0-52.4,0-79.3,0c0-26,0-52.2,0-79.3
		C810.2,784.6,836.4,784.6,863.7,784.6z M836.5,837c0-9.5,0-17.4,0-25.5c-9,0-17.2,0-25.3,0c0,9.1,0,17.3,0,25.5
		C820.1,837,828,837,836.5,837z"/>
	<path class="st0" d="M918.9,863.9c-8.5,0-17,0-26.5,0c0-25.9,0-52.1,0-79.3c16.8,0,34,0,52.1,0c0,8.2,0,16.4,0,25.6
		c-8.2,0-16.2,0-25.9,0c0,18.6,0,36.4,0,54.1C918.5,864.4,918.9,863.9,918.9,863.9z"/>
	<path class="st0" d="M864,702.5c0.1,9.1,0.3,18.2,0.4,27.3c-17.4,0-34.8,0-53.5,0c0-8.9,0-17.1,0-26.7c-9.6,0-17.8,0-27.8,0
		c0-10.1,0-18.9,0-27.6c17.4,0,34.8,0,53.6,0c0,9,0,17.3,0,27.4c10.1,0,18.9,0,27.7,0L864,702.5z"/>
	<path class="st0" d="M756.1,675.9c0-9.1,0-18.2,0-27.4c9.1,0.1,18.2,0.3,27.3,0.4l-0.4-0.4c0.1,9.1,0.3,18.2,0.4,27.3
		C774.4,675.9,765.2,675.9,756.1,675.9z"/>
	<path class="st0" d="M945.4,864.5c0,8.5,0,17,0,27.4c-9.7,0-18.6,0-27.4,0c0.3-9.3,0.5-18.6,0.8-27.9c0,0-0.4,0.4-0.4,0.4
		C927.5,864.4,936.5,864.4,945.4,864.5z"/>
	<path class="st0" d="M945.4,540.5c0,9.1,0,18.2,0,27.4c-8.5,0-16.9,0-26.8,0c0,8.8,0,17.1,0,26c-27.6,0-53.8,0-80.7,0
		c0-8.4,0-16.4,0-25.7c17.1,0,34.4,0,53.2,0c0-19.2,0-36.9,0-54.7c8.4,0,16.9,0,26.7,0c0,9.1,0,17.3,0,27
		C927.9,540.5,936.7,540.5,945.4,540.5z"/>
	<path class="st0" d="M783.5,648.9c0-8.5,0-16.9,0-26.3c26.7,0,52.8,0,79.9,0c0,8.1,0,16.3,0,25.9c-26.9,0-53.6,0-80.3,0
		C783.1,648.6,783.5,648.9,783.5,648.9z"/>
	<path class="st0" d="M864.4,702.9c0-8.4,0-16.9,0-26.3c8.6,0,16.8,0,25.9,0c0,8,0,16.2,0,25.9c-8.8,0-17.6,0-26.3,0
		C864,702.5,864.4,702.9,864.4,702.9z"/>
	<path class="st0" d="M28,161.8c0-44.8,0-88.7,0-133.3c44.5,0,88.3,0,133.3,0c0,43.9,0,88.1,0,133.3
		C117.5,161.8,73.3,161.8,28,161.8z M55,134.8c27.4,0,53.6,0,79.8,0c0-26.9,0-52.8,0-79.2c-26.8,0-53,0-79.8,0
		C55,82.2,55,108.1,55,134.8z"/>
	<path class="st0" d="M971.4,162.5c-44.9,0-88.5,0-133.1,0c0-44.4,0-88.6,0-133.8c43.9,0,88.1,0,133.1,0
		C971.4,73,971.4,117.2,971.4,162.5z M865,55.5c0,27.5,0,53.4,0,79.5c27,0,53.2,0,79.2,0c0-27.1,0-53.3,0-79.5
		C917.4,55.5,891.5,55.5,865,55.5z"/>
	<path class="st0" d="M28.3,837.9c44.8,0,88.4,0,133,0c0,44.4,0,88.6,0,133.7c-43.8,0-88,0-133,0C28.3,927.5,28.3,883.3,28.3,837.9z
		 M134.5,945c0-27.3,0-53.5,0-79.3c-27.2,0-53.4,0-79.3,0c0,27,0,52.9,0,79.3C81.8,945,107.6,945,134.5,945z"/>
	<path class="st0" d="M540.5,756.9c0-8.4,0-16.9,0-26.7c8.7,0,16.9,0,26.6,0c0-10.1,0-18.9,0-27.7c8.5,0,16.9,0,26.8,0
		c0,9.2,0,17.4,0,26.4c9.6,0,17.9,0,27.1,0c0-8.4,0-16.4,0-25.3c9.1,0,17.4,0,27.1,0c0,17.7,0,35.4,0,53.2c0,0,0.4-0.4,0.4-0.4
		c-17.7,0-35.5,0-54.6,0c0,10,0,18.3,0,27c-9.8,0-18.3,0-26.8,0l0.4,0.4c0-8.8,0-17.6,0-27.4c-10.4,0-18.9,0-27.4,0L540.5,756.9z"/>
	<path class="st0" d="M676.4,675.9c8.7,0,16.3,0,24.9,0c0,17.4,0,34.6,0,52.8c-7.9,0-16.1,0-24.9,0
		C676.4,711.2,676.4,693.6,676.4,675.9z"/>
	<path class="st0" d="M648.1,405.9c0-9.1,0-18.2,0-27.4c8.4,0,16.9,0,26.3,0c0,9.1,0,17.3,0,27.4
		C665.7,405.9,656.9,405.9,648.1,405.9z"/>
	<path class="st0" d="M675.1,136c0-9.1,0-18.2,0-27.4c8.4,0,16.9,0,26.2,0c0,9.1,0,17.3,0,27.4C692.7,136,683.9,136,675.1,136z"/>
	<path class="st0" d="M459.1,891.5c0.1,9.1,0.3,18.2,0.4,27.4c-8.5,0-17,0-27,0c0,18.4,0,36.2,0,54c-8.5,0-16.9,0-26.7,0
		c0-18.1,0-35.3,0-54c-10.1,0-18.9,0-27.6,0c0-17.5,0-34.9,0-54.4c-9.4,0-18.2,0-27,0l0.4,0.4c-0.1-9.1-0.3-18.2-0.4-27.3
		c8.5,0,16.9,0,26.3,0c0-17.7,0-34.9,0-53.5c-8.2,0-16.5,0-25.4,0c0-18.6,0-35.8,0-53.6c8.5,0,16.4,0,25.7,0c0,8.2,0,16.4,0,26.6
		c10.1,0,18.9,0,27.7,0c0,0-0.4-0.4-0.4-0.4c0,8.8,0,17.6,0,27.4c10.4,0,18.9,0,27.4,0l-0.4-0.4c0,17.8,0,35.6,0,54.7
		c-9.7,0-18,0-26.2,0c0,9.3,0,17.3,0,26.6c8.9,0,17.1,0,26.7,0c0,9.7,0,17.9,0,27.1c9.9,0,18.3,0,26.8,0L459.1,891.5z"/>
	<path class="st0" d="M432.5,675.5c0,17.4,0,34.8,0,53.2c8.7,0,16.9,0,26.6,0c0-8.2,0-16.4,0-25.3c9.3,0,17.2,0,26.2,0
		c0,16.9,0,34.1,0,52.7c-7.8,0-16,0-26.2,0c0,10.1,0,18.9,0,27.7c0,0,0.4-0.4,0.4-0.4c-9.1,0-18.2,0-27.4,0l0.4,0.4
		c0-8.8,0-17.6,0-27.4c-10.4,0-18.9,0-27.4,0c0,0,0.4,0.4,0.4,0.4c0-26.5,0-52.9,0-81.4C414.9,675.5,423.7,675.5,432.5,675.5z"/>
	<path class="st0" d="M297.2,837.8c0-8.5,0-16.9,0-27c-9.4,0-18.2,0-27,0c0-9.1,0-18.2,0-27.4c17.4,0,34.7,0,53.5,0
		c0,8.9,0,17.1,0,26.7c9.6,0,17.8,0,27.8,0c0,10.1,0,18.9,0,27.6C333.4,837.8,315.3,837.8,297.2,837.8z"/>
	<path class="st0" d="M459.5,648.5c0,8.5,0,16.9,0,27.4c-9.7,0-18.5,0-27.4,0c0-8.5,0-16.9,0-27.4
		C441.9,648.5,450.7,648.5,459.5,648.5z"/>
	<path class="st0" d="M54.3,486.9c0-17.5,0-34.9,0-54c-9.4,0-18.2,0-27,0c0-26.4,0-52.8,0-80.2c9.1,0,17.3,0,27,0
		c0,8.2,0,16.5,0,25.7c9.3,0,17.2,0,26.6,0c0,9.1,0,17.4,0,27.2c10.2,0,19,0,27.8,0c0,8.5,0,17,0,26.9c-9.2,0-17.5,0-26.5,0
		c0,9.3,0,17.3,0,26.7c8,0,16.2,0,26.5,0c0,19.2,0,37,0,54.8c-8.4,0-16.9,0-26.7,0c0-9.1,0-17.3,0-27
		C71.8,486.9,63,486.9,54.3,486.9z"/>
	<path class="st0" d="M108.6,324.6c0,9.1,0,18.2,0,27.4c-8.4,0-16.9,0-26.3,0c0-9.1,0-17.3,0-27.4
		C91.1,324.6,99.8,324.6,108.6,324.6z"/>
	<path class="st0" d="M351.2,864.4c0,8.4,0,16.9,0,26.3c-8.7,0-16.8,0-26,0c0-8,0-16.2,0-25.9c8.8,0,17.6,0,26.3,0
		C351.6,864.8,351.2,864.4,351.2,864.4z"/>
	<path class="st0" d="M189.6,540.9c-8.5,0-17,0-27,0c0,9.4,0,18.2,0,27c-9.1,0-18.2,0-27.4,0c0-8.4,0-16.9,0-26.7
		c-8.7,0-16.9,0-27,0c0-10.1,0-18.9,0-27.7c8.4,0,16.9,0,26.7,0c0-8.7,0-16.9,0-27c10.1,0,18.9,0,27.7,0c0,8.4,0,16.9,0,26.7
		c8.7,0,16.9,0,27,0C189.6,523.3,189.6,532.1,189.6,540.9z"/>
	<path class="st0" d="M216.2,486.5c9.1,0,18.2,0,27.4,0c0,8.4,0,16.9,0,26.3c-9.1,0-17.3,0-27.4,0
		C216.2,504.1,216.2,495.3,216.2,486.5z"/>
	<path class="st0" d="M540.2,891.8c0-8.5,0-17,0-27.4c-9.4,0-18.2,0-27,0l0.4,0.4c0-9,0.1-17.9,0.1-26.9c8.7,0,17.4,0,25.6,0
		c0-10.5,0-18.6,0-26.6c-9,0-16.8,0-25.2,0c0,9.4,0,18.2,0,26.9c-9.3-0.3-18.6-0.5-27.9-0.8l0.4,0.4c0-8.8,0-17.6,0-27.7
		c-10.1,0-18.3,0-27,0c0-9.8,0-18.3,0-26.7c0,0-0.4,0.4-0.4,0.4c17.4,0,34.8,0,53.7,0c0-9,0-17.3,0-27c10.1,0,18.9,0,27.7,0
		c0,0-0.4-0.4-0.4-0.4c0,8.8,0,17.6,0,27.4c10.4,0,18.9,0,27.4,0l-0.4-0.4c0,8.8,0,17.5,0,26.3c19,0,36.2,0,54.7,0
		c0-9.1,0-17.3,0-26c9.8,0,18.2,0,26.7,0c0,0-0.4-0.4-0.4-0.4c0,26.5,0,52.9,0,81.4c-9.4,0-18.2,0-27,0c0-8.8,0-17.5,0-26.3
		c-18.7,0-35.9,0-52.8,0c0,9.1,0,17.3,0,26c18.4,0,35.8,0,53.2,0c0,18.1,0,36.2,0,54.3c-17.4,0-34.8,0-53.6,0c0-9,0-17.3,0-27
		C557.7,891.8,548.9,891.8,540.2,891.8z"/>
	<path class="st0" d="M162.6,648.5c0,8.4,0,16.9,0,26.7c8.7,0,16.9,0,26.6,0c0,10.1,0,18.9,0,27.6l0.4-0.4c-8.8,0-17.6,0-27.4,0
		c0,10.4,0,18.9,0,27.4l0.4-0.4c-8.5,0-16.9,0-26.7,0c0-17.7,0-34.9,0-53.6c-10.1,0-18.9,0-27.6,0c0-8.5,0-17,0-27.4
		C127,648.5,144.8,648.5,162.6,648.5z"/>
	<path class="st0" d="M81.2,702.9c0-9.1,0-18.2,0-27.4c9.1,0,18.2,0,27.4,0c0,8.5,0,17,0,27.4C98.9,702.9,90.1,702.9,81.2,702.9z"/>
	<path class="st0" d="M972.4,540.9c-9.1,0-18.2,0-27.4,0c0-8.4,0-16.9,0-26.3c9.1,0,17.3,0,27.4,0
		C972.4,523.3,972.4,532.1,972.4,540.9z"/>
	<path class="st0" d="M945.1,405.9c0-9.1,0-18.2,0-27.4c8.5,0,17,0,27.4,0c0,9.7,0,18.6,0,27.4C963.3,405.9,954.2,405.9,945.1,405.9
		z"/>
	<path class="st0" d="M567.5,190c-0.1-9.1-0.2-18.3-0.4-27.4c8.5,0,17,0,27,0c0,9.8,0,18.6,0,27.4c0,0,0.4-0.4,0.4-0.4
		c-9.1,0-18.2,0-27.4,0C567.1,189.6,567.5,190,567.5,190z"/>
	<path class="st0" d="M81.2,729.5c8.5,0,17,0,27.4,0c0,9.7,0,18.6,0,27.4c-8.5,0-17,0-27.4,0C81.2,747.1,81.2,738.3,81.2,729.5z"/>
	<path class="st0" d="M216.2,702.9c0-8.5,0-17,0-27.4c9.7,0,18.6,0,27.4,0c0,8.5,0,17,0,27.4C233.9,702.9,225,702.9,216.2,702.9z"/>
	<path class="st0" d="M189.2,702.9c9.1-0.1,18.3-0.2,27.4-0.4c0,8.5,0,17,0,27c-9.7,0-18.6,0-27.4,0c0,0,0.4,0.4,0.4,0.4
		c0-9.1,0-18.2,0-27.4L189.2,702.9z"/>
	<path class="st0" d="M189.6,756.9c-9.1,0-18.2,0-27.4,0c0.1-9.1,0.2-18.3,0.4-27.4c0,0-0.4,0.4-0.4,0.4c9.1,0,18.2,0,27.4,0
		c0,0-0.4-0.4-0.4-0.4C189.4,738.6,189.5,747.7,189.6,756.9z"/>
	<path class="st0" d="M378.6,27.6c0,8.5,0,16.9,0,27.4c-9.7,0-18.6,0-27.4,0c0-8.5,0-17,0-27.4C360.9,27.6,369.7,27.6,378.6,27.6z"
		/>
	<path class="st0" d="M513.2,864.4c0.1,9.1,0.2,18.3,0.4,27.4c-18.1-0.1-36.3-0.2-54.4-0.4c0,0,0.4,0.4,0.4,0.4c0-17.8,0-35.6,0-54
		c10,0,18.5,0,27,0l-0.4-0.4c0,8.8,0,17.6,0,27.4c10.4,0,18.9,0,27.4,0L513.2,864.4z"/>
	<path d="M431.7,244.5c0,8.4,0,16.3,0,25.2c-17.1,0-34.3,0-52.4,0c0-8,0-16.2,0-25.2C396.6,244.5,413.8,244.5,431.7,244.5z"/>
	<path d="M378.5,325c0-8.4,0-16.9,0-26.3c8.6,0,16.8,0,25.9,0c0,8,0,16.2,0,25.9c-8.8,0-17.6,0-26.3,0
		C378.2,324.6,378.5,325,378.5,325z"/>
	<path d="M325,297.1c0-8.7,0-16.6,0-25.4c8.4,0,16.6,0,25.6,0c0,8.3,0,16.5,0,25.4C342.3,297.1,334.4,297.1,325,297.1z"/>
	<path d="M567.1,189.6c9.1,0,18.2,0,27.4,0c0,8.4,0,16.9,0,26.3c-9.1,0-17.3,0-27.4,0C567.1,207.2,567.1,198.4,567.1,189.6z"/>
	<path d="M648.5,783.9c-8.4,0-16.9,0-26.7,0c0,8.7,0,16.9,0,26c-18.5,0-35.7,0-54.7,0c0-8.8,0-17.6,0-26.3c8.5,0,16.9,0,26.8,0
		c0-8.7,0-17,0-27c19.1,0,36.9,0,54.6,0C648.5,765.6,648.5,774.7,648.5,783.9z"/>
	<path d="M729.5,810.5c-8.4,0-16.9,0-26.3,0c0-8.6,0-16.8,0-25.9c8,0,16.2,0,25.9,0c0,8.8,0,17.6,0,26.3
		C729.2,810.9,729.5,810.5,729.5,810.5z"/>
	<path d="M836.5,837c-8.5,0-16.4,0-25.3,0c0-8.2,0-16.4,0-25.5c8.1,0,16.3,0,25.3,0C836.5,819.6,836.5,827.5,836.5,837z"/>
	<path d="M55,134.8c0-26.7,0-52.6,0-79.2c26.8,0,52.9,0,79.8,0c0,26.5,0,52.3,0,79.2C108.6,134.8,82.4,134.8,55,134.8z"/>
	<path d="M865,55.5c26.5,0,52.4,0,79.2,0c0,26.2,0,52.4,0,79.5c-26.1,0-52.3,0-79.2,0C865,108.8,865,82.9,865,55.5z"/>
	<path d="M134.5,945c-26.8,0-52.7,0-79.3,0c0-26.5,0-52.3,0-79.3c25.9,0,52.1,0,79.3,0C134.5,891.5,134.5,917.7,134.5,945z"/>
	<path d="M567.5,783.9c-8.5,0-17,0-27.4,0c0-9.7,0-18.6,0-27.4c8.5,0,17,0,27.4,0C567.5,766.2,567.5,775,567.5,783.9z"/>
	<path d="M486.5,837.8c-8.5,0-17,0-27,0c0,18.4,0,36.2,0,54c-8.5,0-16.9,0-26.8,0c0-9.2,0-17.4,0-27.1c-9.6,0-17.9,0-26.7,0
		c0-9.3,0-17.2,0-26.6c8.2,0,16.4,0,26.2,0c0-19.2,0-36.9,0-54.7c9.1,0,18.2,0,27.4,0c0,8.4,0,16.9,0,26.7c8.7,0,16.9,0,27,0
		C486.5,820.3,486.5,829.1,486.5,837.8z"/>
	<path d="M405.2,756.5c8.5,0,17,0,27.4,0c0,9.7,0,18.6,0,27.4c-8.5,0-17,0-27.4,0C405.2,774.1,405.2,765.3,405.2,756.5z"/>
	<path d="M621.6,864.5c-17.4,0-34.8,0-53.2,0c0-8.6,0-16.9,0-26c16.9,0,34.1,0,52.8,0c0,8.8,0,17.6,0,26.3
		C621.2,864.9,621.6,864.5,621.6,864.5z"/>
	<path d="M514.1,838.3c0-8.8,0-17.5,0-27c8.4,0,16.2,0,25.2,0c0,8,0,16.1,0,26.6c-8.2,0-16.9,0-25.6,0
		C513.6,837.9,514.1,838.3,514.1,838.3z"/>
	<path d="M513.5,864.8c-8.5,0-17,0-27.4,0c0-9.7,0-18.6,0-27.4c9.3,0.3,18.6,0.5,27.9,0.8c0,0-0.4-0.4-0.4-0.4
		C513.6,846.9,513.6,855.9,513.5,864.8z"/>
	<path d="M189.6,729.9c-9.1,0-18.2,0-27.4,0c0-8.5,0-16.9,0-27.4c9.7,0,18.6,0,27.4,0C189.6,711.6,189.6,720.7,189.6,729.9z"/>
</g>
</svg>
